<svg xmlns="http://www.w3.org/2000/svg" xmlns:xlink="http://www.w3.org/1999/xlink">

        <symbol id="bilibili" fill-rule="evenodd" clip-rule="evenodd" stroke-linejoin="round" stroke-miterlimit="1.414">

                <g id="页面-1" stroke="none" stroke-width="1" fill-rule="evenodd">
                        <g id="编组" fill-rule="nonzero">
                                <path d="M3.3304953,0.135363571 C3.63765595,-0.0451211902 3.99307292,-0.0451211902 4.30023356,0.135363571 C4.51929341,0.276571915 4.71944275,0.459618574 4.89348522,0.677922105 L7.17522234,3.17654695 L8.80666436,3.17654695 L11.0884015,0.677922105 C11.2626839,0.459969066 11.4627872,0.276964494 11.6816531,0.135363571 C12.0098633,-0.0112986706 12.3736367,0.0378251549 12.6692928,0.268734078 C12.9649489,0.499643001 13.1600569,0.887008345 13.1990083,1.32042563 C13.2109408,1.6668616 13.1217255,2.00689273 12.9480172,2.27704201 C12.7889048,2.47842452 12.6213404,2.6690656 12.4460351,2.84815626 C12.3451476,2.96587448 12.2384569,3.07555357 12.1265919,3.17654695 L13.5526776,3.17654695 C14.1890183,3.20217231 14.7916222,3.54077151 15.2297543,4.11888547 C15.6948829,4.66574323 15.9694469,5.41964294 15.9941363,6.21773035 L15.9941363,14.4274978 C16.0108753,14.8429181 15.9917501,15.2593861 15.9370928,15.6696712 C15.786952,16.5008006 15.3757438,17.2212727 14.7962243,17.6685711 C14.4021175,17.972798 13.947251,18.131201 13.4842254,18.1254625 L3.0110521,18.1254625 C2.66773692,18.1473933 2.32353178,18.1234617 1.9842704,18.0540732 C1.32805023,17.8607056 0.761040006,17.3464972 0.409871795,16.6262876 C0.158175775,16.1364208 0.0235924395,15.5667321 0.0219764978,14.9843341 L0.0219764978,6.8602339 C-0.00732549926,6.46606428 -0.00732549926,6.06934143 0.0219764978,5.67517182 C0.235698534,4.27965877 1.17136753,3.23748619 2.3037136,3.1337134 L3.79825141,3.1337134 C3.55866902,2.91954555 3.35331268,2.66254414 3.13654765,2.43409844 C2.87677487,2.13545487 2.74199469,1.70322246 2.77146971,1.26331422 C2.79835623,0.795197518 3.00734888,0.373511285 3.3304953,0.135363571 M3.06809554,5.67517182 C2.6342598,5.77129721 2.28342563,6.17145813 2.16680937,6.70317747 C2.1463692,6.88312575 2.1463692,7.06578772 2.16680937,7.24573601 L2.16680937,13.9991621 C2.1416395,14.642895 2.46418989,15.2279219 2.95400868,15.4269477 C3.11198118,15.4940377 3.27776311,15.5279083 3.44458216,15.5268927 L12.7198435,15.5268927 C13.1845375,15.548773 13.6133381,15.2154916 13.8036686,14.6844992 C13.901854,14.3864935 13.9409955,14.063191 13.9177555,13.7421606 L13.9177555,7.45990387 C13.9439669,7.23263575 13.9439669,7.00183487 13.9177555,6.77456675 C13.8152214,6.31655227 13.5371708,5.95251419 13.1761909,5.80367253 C12.9494095,5.70328702 12.7090807,5.65962699 12.4688524,5.67517182 L3.60430375,5.67517182 C3.42578944,5.65941388 3.24660985,5.65941388 3.06809554,5.67517182 Z" id="形状"></path>
                                <path d="M4.31076325,7.50843031 C4.60885681,7.49080854 4.90170713,7.60510452 5.13115184,7.82861818 C5.38904806,8.08675797 5.54046887,8.46160646 5.54729099,8.85878786 L5.54729099,10.250909 C5.55796043,10.571087 5.47397171,10.885773 5.30949719,11.1418666 C5.06460043,11.4974815 4.68627867,11.6897888 4.29716479,11.6564522 C3.90805091,11.6231157 3.55766631,11.3683779 3.35958805,10.9748121 C3.23593299,10.6814238 3.18251672,10.3542747 3.20502209,10.0281696 L3.20502209,8.63604847 C3.28665374,8.01864448 3.70957996,7.5405308 4.2394251,7.46666667 L4.31076325,7.50843031 Z M10.4577329,7.50843031 C10.7751857,7.48172963 11.0885286,7.6051658 11.3276361,7.85111404 C11.5667436,8.09706229 11.7116515,8.44498732 11.7299297,8.81702422 L11.7299297,10.2091454 C11.7490903,10.5292963 11.6870453,10.8489401 11.5515844,11.1279454 C11.3299192,11.5068305 10.9629206,11.7333333 10.5706849,11.7333333 C10.1784493,11.7333333 9.81145071,11.5068305 9.58978553,11.1279454 C9.43976936,10.8298236 9.37324544,10.4841846 9.39955049,10.1395393 L9.39955049,8.74741816 C9.46125167,8.10831128 9.88885224,7.60189435 10.4339535,7.52235152 L10.4577329,7.50843031 Z" id="形状"></path>
                        </g>
                </g>


        </symbol>

        <symbol id="github" fill-rule="evenodd" clip-rule="evenodd" stroke-linejoin="round" stroke-miterlimit="1.414">
                <path d="M8 0C3.58 0 0 3.582 0 8c0 3.535 2.292 6.533 5.47 7.59.4.075.547-.172.547-.385 0-.19-.007-.693-.01-1.36-2.226.483-2.695-1.073-2.695-1.073-.364-.924-.89-1.17-.89-1.17-.725-.496.056-.486.056-.486.803.056 1.225.824 1.225.824.714 1.223 1.873.87 2.33.665.072-.517.278-.87.507-1.07-1.777-.2-3.644-.888-3.644-3.953 0-.873.31-1.587.823-2.147-.09-.202-.36-1.015.07-2.117 0 0 .67-.215 2.2.82.64-.178 1.32-.266 2-.27.68.004 1.36.092 2 .27 1.52-1.035 2.19-.82 2.19-.82.43 1.102.16 1.915.08 2.117.51.56.82 1.274.82 2.147 0 3.073-1.87 3.75-3.65 3.947.28.24.54.73.54 1.48 0 1.07-.01 1.93-.01 2.19 0 .21.14.46.55.38C13.71 14.53 16 11.53 16 8c0-4.418-3.582-8-8-8" />
        </symbol>

        <symbol id="linkedin" fill-rule="evenodd" clip-rule="evenodd" stroke-linejoin="round" stroke-miterlimit="1.414">
                <path d="M13.632 13.635h-2.37V9.922c0-.886-.018-2.025-1.234-2.025-1.235 0-1.424.964-1.424 1.96v3.778h-2.37V6H8.51v1.04h.03c.318-.6 1.092-1.233 2.247-1.233 2.4 0 2.845 1.58 2.845 3.637v4.188zM3.558 4.955c-.762 0-1.376-.617-1.376-1.377 0-.758.614-1.375 1.376-1.375.76 0 1.376.617 1.376 1.375 0 .76-.617 1.377-1.376 1.377zm1.188 8.68H2.37V6h2.376v7.635zM14.816 0H1.18C.528 0 0 .516 0 1.153v13.694C0 15.484.528 16 1.18 16h13.635c.652 0 1.185-.516 1.185-1.153V1.153C16 .516 15.467 0 14.815 0z" fill-rule="nonzero" />
        </symbol>

        <symbol id="rss" fill-rule="evenodd" clip-rule="evenodd" stroke-linejoin="round" stroke-miterlimit="1.414">
                <path d="M12.8 16C12.8 8.978 7.022 3.2 0 3.2V0c8.777 0 16 7.223 16 16h-3.2zM2.194 11.61c1.21 0 2.195.985 2.195 2.196 0 1.21-.99 2.194-2.2 2.194C.98 16 0 15.017 0 13.806c0-1.21.983-2.195 2.194-2.195zM10.606 16h-3.11c0-4.113-3.383-7.497-7.496-7.497v-3.11c5.818 0 10.606 4.79 10.606 10.607z" />
        </symbol>


</svg>
